# xmcd CD database file
#
# Track frame offsets:
#	150
#	10155
#	28987
#	42107
#	56205
#	70542
#	80717
#	95360
#	109822
#	122812
#	134377
#
# Disc length: 1912 seconds
#
# Revision: 0
# Processed by: cddbd v1.5.1PL2 Copyright (c) Steve Scherf et al.
# Submitted via: CDex 1.50
#
DISCID=9407760b
DTITLE=Upstream - vintage vantage
DYEAR=1999
DGENRE=Country
TTITLE0=Paulette
TTITLE1=Not Finished Yet
TTITLE2=Heaven Come Down On Me
TTITLE3=Again
TTITLE4=Look At Him
TTITLE5=Ernie and the Skunk
TTITLE6=Slumber
TTITLE7=Little Valley Home
TTITLE8=Matters Of The Heart
TTITLE9=Sacrifice
TTITLE10=Traveller's Psalm
EXTD=YEAR: 1999
EXTT0=
EXTT1=
EXTT2=
EXTT3=
EXTT4=
EXTT5=
EXTT6=
EXTT7=
EXTT8=
EXTT9=
EXTT10=
PLAYORDER=
